<?xml version="1.0" encoding="UTF-8"?>
<svg id="Camada_2" data-name="Camada 2" xmlns="http://www.w3.org/2000/svg" viewBox="0 0 814.04 180.42">
  <defs>
    <style>
      .cls-1 {
        fill: #f22;
      }

      .cls-2 {
        fill: #054f77;
      }
    </style>
  </defs>
  <g id="Camada_1-2" data-name="Camada 1">
    <path d="M89.21,55.93c6.32,0,11.57,1.42,15.75,4.27,4.18,2.84,7.3,7.15,9.37,12.9,2.07,5.76,3.11,13.06,3.11,21.91v49.92h-6.74v-47.18c0-12.22-1.63-21.08-4.9-26.59-3.26-5.51-8.97-8.27-17.11-8.27-4,0-8.06,1.14-12.16,3.42-4.11,2.28-7.55,5.97-10.32,11.06-2.77,5.09-4.16,11.88-4.16,20.38v47.18h-6.74v-47.18c0-12.22-2.12-21.08-6.37-26.59-4.25-5.51-9.64-8.27-16.17-8.27-4.07,0-8.11,1.09-12.11,3.27-4,2.18-7.32,5.81-9.95,10.9-2.63,5.09-3.95,11.99-3.95,20.7v47.18H0V58.45H6.74v14.01c.7-2.18,2.23-4.55,4.58-7.11,2.35-2.56,5.48-4.77,9.37-6.64,3.9-1.86,8.41-2.79,13.53-2.79s9.78,1.32,13.32,3.95c3.54,2.63,6.27,5.71,8.16,9.22,1.9,3.51,2.98,6.6,3.26,9.27,1.05-3.51,2.93-6.99,5.63-10.43,2.7-3.44,6.14-6.3,10.32-8.58,4.18-2.28,8.93-3.42,14.27-3.42Z"/>
    <path d="M154.4,105.01c0,10.95,2.48,19.64,7.43,26.07s12.3,9.64,22.06,9.64,17.11-3.21,22.06-9.64,7.43-15.11,7.43-26.07V58.45h6.74v48.34c0,7.72-1.41,14.66-4.21,20.8-2.81,6.14-6.9,10.99-12.27,14.53-5.37,3.54-11.95,5.32-19.75,5.32s-14.29-1.77-19.7-5.32c-5.41-3.54-9.52-8.39-12.32-14.53-2.81-6.14-4.21-13.08-4.21-20.8V58.45h6.74v46.55Z"/>
    <path d="M288.58,55.93c5.27,0,10.43,1.16,15.48,3.48,5.06,2.32,9.22,5.99,12.48,11.01,3.27,5.02,4.9,11.53,4.9,19.54v54.98h-6.95v-52.77c0-10.6-2.46-18.17-7.37-22.7-4.92-4.53-11.16-6.79-18.75-6.79-5.06,0-9.94,1.47-14.64,4.42-4.71,2.95-8.58,6.95-11.64,12.01s-4.58,10.71-4.58,16.96v48.87h-6.74V58.45h6.74v17.69c.42-2.53,2.07-5.37,4.95-8.53,2.88-3.16,6.6-5.9,11.16-8.22,4.56-2.32,9.55-3.48,14.96-3.48Z"/>
    <path d="M389.16,147.45c-7.65,0-14.66-1.76-21.01-5.27-6.36-3.51-11.43-8.67-15.22-15.48-3.79-6.81-5.69-15.13-5.69-24.96s1.9-18.15,5.69-24.96,8.86-11.99,15.22-15.54c6.35-3.54,13.36-5.32,21.01-5.32,7.02,0,13.2,1.32,18.54,3.95,5.33,2.63,9.55,5.67,12.64,9.11,3.09,3.44,4.74,6.36,4.95,8.74V0h7.06V144.92h-6.74v-19.17c-.21,2.11-1.86,4.88-4.95,8.32-3.09,3.44-7.34,6.53-12.74,9.27-5.41,2.74-11.66,4.11-18.75,4.11Zm-.63-6.74c6.67,0,12.8-1.58,18.38-4.74,5.58-3.16,10.04-7.65,13.38-13.48,3.33-5.83,5-12.74,5-20.75s-1.67-14.92-5-20.75c-3.34-5.83-7.79-10.34-13.38-13.53-5.58-3.19-11.71-4.79-18.38-4.79-5.97,0-11.57,1.56-16.8,4.69-5.23,3.12-9.46,7.6-12.69,13.43-3.23,5.83-4.84,12.81-4.84,20.96s1.61,15.13,4.84,20.96c3.23,5.83,7.46,10.29,12.69,13.38,5.23,3.09,10.83,4.63,16.8,4.63Z"/>
    <path class="cls-2" d="M605.99,180.42h-29.2l-31.16-89.22h29.54l16.22,55.36,16.22-55.36h29.54l-31.16,89.22Z"/>
    <path class="cls-2" d="M658.51,91.2h30.82c9.51,0,17.43,1.9,23.76,5.71,6.33,3.81,11.1,9.07,14.3,15.78,3.2,6.71,4.8,14.4,4.8,23.05s-1.6,16.4-4.8,23.12c-3.2,6.71-7.97,11.99-14.3,15.82-6.33,3.83-14.25,5.75-23.76,5.75h-30.82V91.2Zm26.16,23.05v43.12h2.3c3.74,0,6.89-.95,9.46-2.84,2.57-1.89,4.53-4.47,5.88-7.74,1.35-3.27,2.03-6.9,2.03-10.92s-.67-7.72-1.99-10.98c-1.33-3.27-3.29-5.86-5.88-7.77-2.59-1.91-5.76-2.87-9.5-2.87h-2.3Z"/>
    <path class="cls-2" d="M754.15,91.2h59.89v22.71h-33.73v10.82h33.73v21.97h-33.73v11.02h33.73v22.71h-59.89V91.2Z"/>
    <path class="cls-2" d="M489.77,149.53c-4.64,0-8.99-.67-13.06-1.95v32.84h27.57v-33.32c-4.47,1.62-9.31,2.43-14.52,2.43Z"/>
    <path class="cls-1" d="M527.92,79.44c-3.69-6.99-8.78-12.55-15.27-16.69-6.5-4.14-13.96-6.21-22.38-6.21s-15.9,2.07-22.43,6.21c-6.53,4.14-11.66,9.71-15.38,16.69-3.72,6.99-5.58,14.69-5.58,23.12s1.86,16.08,5.58,22.96c3.72,6.88,8.85,12.36,15.38,16.43,6.53,4.07,14.01,6.11,22.43,6.11s15.88-2.04,22.38-6.11c6.49-4.07,11.59-9.55,15.27-16.43,3.69-6.88,5.53-14.54,5.53-22.96s-1.84-16.13-5.53-23.12Zm-56.87-10.9c5.51-3.51,11.92-5.27,19.22-5.27s13.69,1.76,19.17,5.27c5.48,3.51,9.72,8.23,12.74,14.17,1.25,2.45,2.22,5.03,2.95,7.71h-69.92c.74-2.68,1.73-5.26,2.99-7.71,3.05-5.93,7.34-10.65,12.85-14.17Zm19.47,45.49c-4.42,0-8-3.58-8-8s3.58-8,8-8,8,3.58,8,8-3.58,8-8,8Zm-32.32,8.28c-1.3-2.5-3.06-7.91-3.06-7.91h21.24v24.45c-1.86-.72-3.64-1.59-5.34-2.63-5.51-3.4-9.79-8.04-12.85-13.9Zm51.24,13.9c-1.72,1.07-3.54,1.95-5.43,2.68v-24.49h21.2c-.74,2.77-1.74,5.41-3.02,7.91-3.02,5.86-7.27,10.5-12.74,13.9Z"/>
  </g>
</svg>